
<svg version="1.0" xmlns="http://www.w3.org/2000/svg"
 width="1280.000000pt" height="1064.000000pt" viewBox="0 0 1280.000000 1064.000000"
 preserveAspectRatio="xMidYMid meet">

<g transform="translate(0.000000,1064.000000) scale(0.100000,-0.100000)"
fill="#000000" stroke="none">
<path d="M2425 10464 c-478 -37 -905 -172 -1235 -391 -507 -337 -772 -761
-797 -1278 -12 -260 55 -504 197 -709 59 -85 208 -233 301 -299 149 -105 351
-186 555 -223 137 -24 421 -24 559 0 279 50 503 163 673 341 136 141 216 309
243 511 48 365 -153 644 -466 644 -63 0 -189 -30 -208 -49 -8 -8 -5 -41 12
-124 49 -236 53 -268 42 -336 -16 -97 -54 -166 -141 -252 -120 -119 -268 -197
-450 -235 -115 -25 -347 -25 -445 0 -196 48 -362 182 -446 361 -98 207 -103
499 -14 723 135 337 527 689 907 817 317 106 614 82 1028 -82 156 -61 466
-220 685 -349 483 -285 762 -411 1056 -476 91 -20 131 -23 324 -22 314 0 508
35 862 153 l203 68 -188 -191 c-1322 -1345 -1983 -2747 -2093 -4439 -15 -237
-6 -918 15 -1127 91 -888 308 -1555 690 -2120 301 -445 660 -739 1069 -875
373 -124 731 -126 1081 -5 329 113 622 314 1035 708 91 87 166 151 169 144 5
-17 147 -218 195 -277 252 -308 513 -500 807 -593 173 -55 249 -66 440 -67
204 0 310 16 493 76 450 147 862 488 1303 1079 675 904 1061 1918 1223 3215
84 669 101 1518 40 2075 -102 950 -396 1763 -839 2320 -287 361 -586 641 -923
864 -321 213 -642 346 -967 403 -135 24 -431 23 -565 -1 -594 -107 -1019 -539
-1096 -1114 -16 -118 -6 -362 20 -472 75 -326 216 -525 556 -780 194 -146 335
-235 760 -480 314 -182 604 -385 792 -556 302 -274 486 -632 558 -1079 9 -55
22 -103 28 -107 21 -13 213 -9 225 5 31 39 53 507 33 717 -58 600 -319 1011
-881 1385 -172 114 -283 176 -580 325 -415 208 -624 338 -782 489 -143 135
-227 272 -264 428 -21 84 -23 284 -5 368 23 108 85 222 165 301 81 80 147 121
261 160 69 24 100 28 231 32 177 5 267 -9 409 -65 210 -82 387 -203 580 -397
559 -562 1029 -1385 1291 -2261 140 -469 225 -926 275 -1485 17 -191 23 -862
10 -1100 -77 -1400 -472 -2576 -1132 -3363 -99 -119 -293 -306 -391 -380 -238
-178 -435 -253 -643 -245 -99 4 -117 8 -178 37 -214 103 -383 388 -496 841
-39 153 -41 167 -27 195 8 16 28 60 45 98 74 165 266 419 495 655 181 186 316
303 508 442 417 303 588 452 726 636 146 195 238 419 271 657 14 99 14 324 1
442 -36 313 -122 575 -257 780 -178 271 -429 436 -705 465 -433 44 -844 -235
-1083 -735 l-38 -80 -35 75 -34 75 11 195 c6 107 27 425 46 705 36 533 52 884
42 926 -4 17 -23 33 -62 52 -30 15 -60 27 -66 27 -13 0 -1041 -796 -1051 -814
-4 -7 -14 -102 -22 -211 -9 -109 -18 -200 -20 -202 -2 -3 -30 -11 -63 -20 -32
-8 -94 -32 -137 -54 -312 -155 -555 -504 -641 -918 -8 -40 -17 -76 -19 -80
-12 -19 -36 -305 -36 -423 0 -334 74 -582 254 -848 65 -97 312 -344 447 -448
l106 -81 6 -178 c15 -421 75 -833 172 -1187 l35 -128 -39 -47 c-117 -140 -422
-410 -573 -508 -100 -65 -263 -140 -353 -164 -103 -26 -269 -28 -375 -4 -95
21 -237 88 -316 148 -97 74 -236 227 -317 349 -381 573 -604 1443 -667 2593
-14 249 -14 940 0 1180 89 1549 543 2801 1411 3885 174 218 323 384 542 603
108 110 197 201 197 203 0 12 -60 122 -72 130 -7 6 -32 16 -56 23 l-43 12
-187 -100 c-505 -269 -857 -394 -1192 -423 -118 -10 -148 -9 -240 6 -232 39
-490 144 -1025 416 -385 196 -566 278 -770 349 -147 52 -348 105 -475 126 -91
16 -391 27 -495 19z m7152 -4835 c434 -58 721 -378 803 -891 51 -323 5 -590
-140 -807 -118 -176 -252 -295 -556 -496 -98 -65 -217 -143 -263 -174 -326
-216 -724 -605 -854 -833 -19 -35 -37 -49 -37 -30 0 4 -16 31 -35 60 l-34 52
-16 223 c-23 333 -37 882 -30 1242 7 379 23 880 31 984 l6 75 32 -60 c24 -47
36 -59 55 -59 20 0 32 17 80 111 96 188 204 321 344 426 152 113 285 160 524
187 6 0 47 -4 90 -10z m-2261 -126 c-29 -455 -53 -1051 -62 -1585 -4 -219 -9
-398 -12 -398 -3 0 -38 25 -79 55 -214 161 -363 354 -432 557 -46 137 -54 205
-48 409 4 161 9 199 35 305 51 199 96 304 188 434 58 82 141 167 220 223 49
35 169 97 188 97 5 0 6 -42 2 -97z"/>
</g>
</svg>
